<svg xmlns="http://www.w3.org/2000/svg" viewBox="0 0 34 34" width="34" height="34">
	<defs>
		<clipPath clipPathUnits="userSpaceOnUse" id="cp1">
			<path d="M736.24 954.68L-499.68 954.68L-499.68 -774.46L736.24 -774.46L736.24 954.68Z" />
		</clipPath>
	</defs>
	<style>
		tspan { white-space:pre }
		.shp0 { fill: #2974e2 } 
	</style>
	<g id="PRINT">
		<g id="&lt;Clip Group&gt;" clip-path="url(#cp1)">
			<g id="&lt;Group&gt;">
				<g id="&lt;Group&gt;">
					<g id="&lt;Group&gt;">
						<g id="&lt;Group&gt;">
							<g id="&lt;Group&gt;">
								<path id="&lt;Compound Path&gt;" fill-rule="evenodd" class="shp0" d="M29.42 3.32C29.96 3.32 30.41 3.77 30.41 4.31L30.41 22.12C30.41 22.66 29.96 23.1 29.42 23.1L4 23.1C3.46 23.1 3.01 22.66 3.01 22.12L3.01 4.31C3.01 3.77 3.46 3.32 4 3.32L29.42 3.32ZM28.91 4.82L4.51 4.82L4.51 21.6L28.91 21.6L28.91 4.82Z" />
								<path id="&lt;Compound Path&gt;" fill-rule="evenodd" class="shp0" d="M33.41 3.16L33.41 6.14C33.41 6.56 33.07 6.89 32.66 6.89C32.24 6.89 31.91 6.56 31.91 6.14L31.91 3.16C31.91 2.42 31.31 1.82 30.57 1.82L2.85 1.82C2.11 1.82 1.51 2.42 1.51 3.16L1.51 23.27C1.51 24.01 2.11 24.61 2.85 24.61L30.57 24.61C31.31 24.61 31.91 24.01 31.91 23.27L31.91 15C31.91 14.59 32.23 14.23 32.64 14.21C33.06 14.2 33.41 14.54 33.41 14.96L33.41 23.27C33.41 24.84 32.14 26.11 30.57 26.11L21.53 26.11L21.53 29.14L24.17 29.14C24.9 29.14 25.5 29.74 25.5 30.48L25.48 33.65L7.95 33.65L7.95 30.48C7.95 29.74 8.55 29.14 9.29 29.14L11.93 29.14L11.93 26.11L2.85 26.11C1.28 26.11 0.01 24.84 0.01 23.27L0.01 3.16C0.01 1.59 1.28 0.32 2.85 0.32L30.57 0.32C32.14 0.32 33.41 1.59 33.41 3.16ZM9.45 30.64L9.45 32.14L24 32.14L24 30.64L9.45 30.64ZM13.43 29.14L20.03 29.14L20.03 26.11L13.43 26.11L13.43 29.14Z" />
								<path id="&lt;Path&gt;" class="shp0" d="M32.66 8.19C32.24 8.19 31.91 8.53 31.91 8.94L31.91 11.43C31.91 11.84 32.23 12.2 32.64 12.21C33.06 12.22 33.41 11.88 33.41 11.46L33.41 8.94C33.41 8.53 33.07 8.19 32.66 8.19Z" />
							</g>
						</g>
					</g>
				</g>
			</g>
		</g>
	</g>
</svg>