<svg xmlns="http://www.w3.org/2000/svg" viewBox="0 0 37 26" width="37" height="26">
	<defs>
		<clipPath clipPathUnits="userSpaceOnUse" id="cp1">
			<path d="M736.24 501.68L-499.68 501.68L-499.68 -1227.46L736.24 -1227.46L736.24 501.68Z" />
		</clipPath>
	</defs>
	<style>
		tspan { white-space:pre }
		.shp0 { fill: #2974e2 } 
	</style>
	<g id="PRINT">
		<g id="&lt;Clip Group&gt;" clip-path="url(#cp1)">
			<g id="&lt;Group&gt;">
				<g id="&lt;Group&gt;">
					<g id="&lt;Group&gt;">
						<g id="&lt;Group&gt;">
							<path id="&lt;Compound Path&gt;" fill-rule="evenodd" class="shp0" d="M32.97 21.36C31.04 21.36 29.46 19.78 29.46 17.84C29.46 16.31 30.44 15.01 31.8 14.53L31.8 10.85L27.88 12.6L27.88 22.27C27.88 23.22 27.28 24.07 26.39 24.39C24.11 25.2 21.22 26.12 16.89 26.1C12.36 26.08 10.19 25.26 7.77 24.39C6.87 24.07 6.27 23.22 6.27 22.27L6.27 12.6L1 10.25C0.4 9.98 0.01 9.38 0.01 8.72C0.01 8.06 0.4 7.46 1 7.19L16.4 0.33C16.83 0.14 17.33 0.14 17.76 0.33L22.66 2.51C23.25 2.78 23.52 3.47 23.25 4.06C22.99 4.65 22.29 4.92 21.7 4.66L17.08 2.59L3.33 8.72L7.9 10.76C7.9 10.76 7.91 10.76 7.92 10.77L17.08 14.85L26.24 10.77C26.25 10.76 26.25 10.76 26.26 10.76L30.83 8.72L26.57 6.82C25.97 6.56 25.71 5.87 25.97 5.27C26.24 4.68 26.93 4.42 27.52 4.68L33.16 7.19C33.76 7.46 34.15 8.06 34.15 8.72L34.15 14.53C35.51 15.01 36.49 16.31 36.49 17.84C36.49 19.78 34.92 21.36 32.97 21.36ZM25.54 22.2L25.54 13.65L17.76 17.11C17.33 17.31 16.83 17.31 16.4 17.11L8.62 13.65L8.62 22.2L8.69 22.23C10.86 23 12.9 23.74 16.9 23.76C21.11 23.78 23.25 23.02 25.52 22.21L25.54 22.2ZM34.15 17.84C34.15 17.2 33.62 16.67 32.97 16.67C32.33 16.67 31.8 17.2 31.8 17.84C31.8 18.49 32.33 19.02 32.97 19.02C33.62 19.02 34.15 18.49 34.15 17.84Z" />
						</g>
					</g>
				</g>
			</g>
		</g>
	</g>
</svg>