<svg xmlns="http://www.w3.org/2000/svg" viewBox="0 0 42 42" width="42" height="42">
	<defs>
		<clipPath clipPathUnits="userSpaceOnUse" id="cp1">
			<path d="M1165.24 1032.68L-70.68 1032.68L-70.68 -696.46L1165.24 -696.46L1165.24 1032.68Z" />
		</clipPath>
	</defs>
	<style>
		tspan { white-space:pre }
		.shp0 { fill: #81efe2 } 
	</style>
	<g id="PRINT">
		<g id="&lt;Clip Group&gt;" clip-path="url(#cp1)">
			<g id="&lt;Group&gt;">
				<g id="&lt;Group&gt;">
					<g id="&lt;Group&gt;">
						<g id="&lt;Group&gt;">
							<g id="&lt;Group&gt;">
								<g id="&lt;Group&gt;">
									<path id="&lt;Path&gt;" class="shp0" d="M32.8 35.55C32.41 35.87 31.98 36.19 31.54 36.49C31.25 36.68 31.07 37.01 31.07 37.37C31.07 37.95 31.55 38.42 32.13 38.42C32.34 38.42 32.55 38.36 32.72 38.24C33.24 37.89 33.71 37.53 34.18 37.15C34.62 36.76 34.67 36.09 34.29 35.65C33.9 35.21 33.24 35.16 32.8 35.55Z" />
									<path id="&lt;Compound Path&gt;" fill-rule="evenodd" class="shp0" d="M39.94 29.58C39.91 29.73 39.84 29.87 39.74 30C39.1 31.4 38.23 32.8 37.24 34.04C37.05 34.27 36.79 34.4 36.51 34.43C36.25 34.45 35.95 34.36 35.74 34.18C35.31 33.82 35.24 33.18 35.58 32.73C36.04 32.16 36.46 31.55 36.85 30.93C34.54 31.45 32.2 31.86 29.87 32.13C29.01 34.95 27.85 37.26 26.46 38.92C27.05 38.75 27.62 38.54 28.18 38.31C28.74 38.1 29.35 38.36 29.56 38.9C29.77 39.43 29.52 40.03 28.99 40.26C26.49 41.3 23.85 41.82 21.13 41.82C21 41.82 20.88 41.83 20.77 41.81C12.91 41.69 5.65 36.97 2.34 29.79C1.1 27.07 0.47 24.18 0.47 21.19C0.47 18.21 1.1 15.31 2.34 12.6C5.66 5.4 12.93 0.68 20.85 0.57L20.99 1.05L20.99 0.57L21.21 0.57C21.31 0.56 21.36 0.56 21.42 0.57C29.29 0.69 36.55 5.41 39.86 12.59C42.33 17.97 42.36 24.16 39.94 29.58ZM22.16 32.61L22.16 39.53C24.23 38.86 26.18 36.26 27.52 32.37C25.76 32.52 23.96 32.6 22.16 32.61ZM28.17 30.19C28.79 27.74 29.16 25.01 29.24 22.25L22.16 22.25L22.16 30.5C24.16 30.48 26.17 30.38 28.17 30.19ZM30.44 12.45C30.98 14.85 31.29 17.43 31.35 20.14L39.58 20.14C39.46 17.99 38.97 15.91 38.13 13.93C35.6 13.29 33.02 12.79 30.44 12.45ZM27.52 10.01C26.18 6.12 24.23 3.52 22.16 2.85L22.16 9.78C23.94 9.78 25.74 9.86 27.52 10.01ZM28.17 12.2C26.17 12 24.16 11.9 22.16 11.89L22.16 20.14L29.24 20.14C29.16 17.37 28.79 14.64 28.17 12.2ZM36.84 11.45C34.46 7.63 30.79 4.82 26.49 3.5C27.87 5.16 29.02 7.46 29.87 10.25C32.21 10.53 34.55 10.93 36.84 11.45ZM31.35 22.25C31.29 24.95 30.98 27.53 30.44 29.94C33.02 29.6 35.6 29.1 38.13 28.45C38.97 26.48 39.46 24.39 39.58 22.25L31.35 22.25ZM14.68 32.37C16.03 36.27 17.98 38.87 20.04 39.53L20.04 32.61C18.24 32.6 16.44 32.52 14.68 32.37ZM5.36 30.93C7.73 34.75 11.41 37.57 15.71 38.88C14.33 37.22 13.18 34.93 12.33 32.13C10.01 31.86 7.67 31.46 5.36 30.93ZM12.96 22.25C13.04 25.01 13.41 27.73 14.03 30.19C16.03 30.38 18.04 30.48 20.04 30.5L20.04 22.25L12.96 22.25ZM4.07 13.93C3.23 15.9 2.74 17.99 2.62 20.14L10.85 20.14C10.91 17.43 11.22 14.85 11.76 12.45C9.18 12.79 6.6 13.29 4.07 13.93ZM12.33 10.25C13.18 7.46 14.33 5.16 15.71 3.5C11.41 4.82 7.74 7.63 5.36 11.45C7.65 10.93 9.99 10.53 12.33 10.25ZM14.03 12.2C13.41 14.65 13.04 17.38 12.96 20.14L20.04 20.14L20.04 11.89C18.04 11.9 16.03 12 14.03 12.2ZM20.04 9.78L20.04 2.85C17.98 3.52 16.03 6.12 14.68 10.01C16.46 9.86 18.26 9.78 20.04 9.78ZM11.76 29.94C11.22 27.53 10.91 24.95 10.85 22.25L2.62 22.25C2.74 24.39 3.23 26.48 4.07 28.45C6.6 29.1 9.18 29.6 11.76 29.94Z" />
								</g>
							</g>
						</g>
					</g>
				</g>
			</g>
		</g>
	</g>
</svg>