<svg xmlns="http://www.w3.org/2000/svg" viewBox="0 0 34 44" width="34" height="44">
	<defs>
		<clipPath clipPathUnits="userSpaceOnUse" id="cp1">
			<path d="M1161.24 957.68L-74.68 957.68L-74.68 -771.46L1161.24 -771.46L1161.24 957.68Z" />
		</clipPath>
	</defs>
	<style>
		tspan { white-space:pre }
		.shp0 { fill: #81efe2 } 
	</style>
	<g id="PRINT">
		<g id="&lt;Clip Group&gt;" clip-path="url(#cp1)">
			<g id="&lt;Group&gt;">
				<g id="&lt;Group&gt;">
					<g id="&lt;Group&gt;">
						<g id="&lt;Group&gt;">
							<g id="&lt;Group&gt;">
								<g id="&lt;Group&gt;">
									<path id="&lt;Compound Path&gt;" fill-rule="evenodd" class="shp0" d="M33.95 16.73C33.95 20.58 32.61 24.34 30.19 27.33C30.19 27.33 30.19 27.34 30.18 27.34L18.01 42.95C17.79 43.23 17.46 43.39 17.1 43.39C16.75 43.39 16.42 43.23 16.2 42.95L4.08 27.43C4.06 27.4 4.04 27.37 4.02 27.34C1.6 24.35 0.26 20.59 0.26 16.73C0.26 7.44 7.82 -0.12 17.1 -0.12C26.39 -0.12 33.95 7.44 33.95 16.73ZM31.66 16.73C31.66 8.7 25.13 2.17 17.1 2.17C9.08 2.17 2.55 8.7 2.55 16.73C2.55 20.1 3.73 23.39 5.88 25.99C5.91 26.03 5.94 26.08 5.97 26.12L17.1 40.38L28.35 25.97C28.36 25.95 28.38 25.93 28.39 25.92C30.5 23.33 31.66 20.07 31.66 16.73Z" />
									<path id="&lt;Path&gt;" class="shp0" d="M25.56 13.28C24.96 13.46 24.61 14.1 24.79 14.7C25.62 17.52 24.85 20.57 22.77 22.65C21.26 24.16 19.24 24.99 17.1 24.99C14.96 24.99 12.95 24.16 11.44 22.65C9.92 21.13 9.09 19.12 9.09 16.98C9.09 14.84 9.92 12.83 11.44 11.31C13.52 9.23 16.56 8.46 19.39 9.29C19.99 9.47 20.63 9.13 20.81 8.52C20.99 7.92 20.64 7.28 20.04 7.1C16.41 6.02 12.49 7.02 9.82 9.69C7.87 11.64 6.8 14.23 6.8 16.98C6.8 19.73 7.87 22.32 9.82 24.26C11.76 26.21 14.35 27.28 17.1 27.28C19.86 27.28 22.44 26.21 24.39 24.26C27.06 21.59 28.06 17.68 26.99 14.06C26.81 13.45 26.17 13.1 25.56 13.28Z" />
									<path id="&lt;Path&gt;" class="shp0" d="M22.79 11.33C23.01 11.56 23.31 11.67 23.6 11.67C23.89 11.67 24.19 11.56 24.41 11.33C24.86 10.88 24.86 10.16 24.41 9.71L24.39 9.69C23.94 9.24 23.22 9.24 22.77 9.69C22.32 10.14 22.32 10.86 22.77 11.31L22.79 11.33Z" />
								</g>
							</g>
						</g>
					</g>
				</g>
			</g>
		</g>
	</g>
</svg>