<svg xmlns="http://www.w3.org/2000/svg" viewBox="0 0 26 32" width="26" height="32">
	<defs>
		<clipPath clipPathUnits="userSpaceOnUse" id="cp1">
			<path d="M736.24 1234.68L-499.68 1234.68L-499.68 -494.46L736.24 -494.46L736.24 1234.68Z" />
		</clipPath>
	</defs>
	<style>
		tspan { white-space:pre }
		.shp0 { fill: #2974e2 } 
	</style>
	<g id="PRINT">
		<g id="&lt;Clip Group&gt;" clip-path="url(#cp1)">
			<g id="&lt;Group&gt;">
				<g id="&lt;Group&gt;">
					<g id="&lt;Group&gt;">
						<g id="&lt;Group&gt;">
							<g id="&lt;Group&gt;">
								<g id="&lt;Group&gt;">
									<path id="&lt;Path&gt;" class="shp0" d="M12.64 16.92C17.15 16.92 20.82 13.25 20.82 8.74C20.82 4.23 17.15 0.56 12.64 0.56C11.18 0.56 9.74 0.95 8.48 1.69C7.95 2.01 7.78 2.69 8.09 3.22C8.4 3.75 9.09 3.92 9.62 3.61C10.53 3.07 11.57 2.78 12.64 2.78C15.93 2.78 18.6 5.45 18.6 8.74C18.6 12.02 15.93 14.7 12.64 14.7C9.45 14.7 6.84 12.21 6.69 9.03C6.66 8.42 6.12 7.95 5.53 7.97C4.91 8 4.44 8.52 4.47 9.14C4.68 13.5 8.27 16.92 12.64 16.92Z" />
									<path id="&lt;Path&gt;" class="shp0" d="M5.68 7.08C5.82 7.13 5.96 7.16 6.1 7.16C6.54 7.16 6.95 6.9 7.13 6.47C7.32 6.01 7.57 5.57 7.87 5.17C8.24 4.68 8.14 3.98 7.65 3.61C7.16 3.24 6.46 3.35 6.09 3.84C5.68 4.39 5.34 4.99 5.08 5.62C4.84 6.19 5.11 6.84 5.68 7.08Z" />
									<path id="&lt;Path&gt;" class="shp0" d="M12.64 17.83C5.56 17.83 0.01 23.56 0.01 30.86C0.01 31.48 0.51 31.97 1.12 31.97C1.74 31.97 2.23 31.48 2.23 30.86C2.23 24.8 6.81 20.06 12.64 20.06C18.48 20.06 23.05 24.8 23.05 30.86C23.05 31.48 23.54 31.97 24.16 31.97C24.77 31.97 25.27 31.48 25.27 30.86C25.27 23.56 19.72 17.83 12.64 17.83Z" />
								</g>
							</g>
						</g>
					</g>
				</g>
			</g>
		</g>
	</g>
</svg>