<svg xmlns="http://www.w3.org/2000/svg" viewBox="0 0 34 44" width="34" height="44">
	<defs>
		<clipPath clipPathUnits="userSpaceOnUse" id="cp1">
			<path d="M1161.24 957.68L-74.68 957.68L-74.68 -771.46L1161.24 -771.46L1161.24 957.68Z" />
		</clipPath>
	</defs>
	<style>
		tspan { white-space:pre }
		.shp0 { fill: #81efe2 } 
	</style>
	<g id="PRINT">
		<g id="&lt;Clip Group&gt;" clip-path="url(#cp1)">
			<g id="&lt;Group&gt;">
				<g id="&lt;Group&gt;">
					<g id="&lt;Group&gt;">
						<g id="&lt;Group&gt;">
							<g id="&lt;Group&gt;">
								<g id="&lt;Group&gt;">
									<path id="&lt;Compound Path&gt;" fill-rule="evenodd" class="shp0" d="M33.95 16.73C33.95 20.58 32.61 24.34 30.19 27.33C30.19 27.33 30.19 27.34 30.18 27.34L18.01 42.95C17.79 43.23 17.46 43.39 17.1 43.39C16.75 43.39 16.42 43.23 16.2 42.95L4.08 27.43C4.06 27.4 4.04 27.37 4.02 27.34C1.6 24.35 0.26 20.59 0.26 16.73C0.26 7.44 7.82 -0.12 17.1 -0.12C26.39 -0.12 33.95 7.44 33.95 16.73ZM31.66 16.73C31.66 8.7 25.13 2.17 17.1 2.17C9.08 2.17 2.55 8.7 2.55 16.73C2.55 20.1 3.73 23.39 5.88 25.99C5.91 26.03 5.94 26.08 5.97 26.12L17.1 40.38L28.35 25.97C28.36 25.95 28.38 25.93 28.39 25.92C30.5 23.33 31.66 20.07 31.66 16.73Z" />
								</g>
							</g>
						</g>
					</g>
				</g>
			</g>
		</g>
	</g>
</svg>